<?xml version="1.0" encoding="utf-8"?>
<!-- Generator: Adobe Illustrator 17.1.0, SVG Export Plug-In . SVG Version: 6.00 Build 0)  -->
<!DOCTYPE svg PUBLIC "-//W3C//DTD SVG 1.1//EN" "http://www.w3.org/Graphics/SVG/1.1/DTD/svg11.dtd">
<svg version="1.1" id="Layer_1" xmlns="http://www.w3.org/2000/svg" xmlns:xlink="http://www.w3.org/1999/xlink" x="0px" y="0px"
	 viewBox="130.5 0 537.1 522.4" enable-background="new 130.5 0 537.1 522.4" xml:space="preserve">
<g>
	<circle fill="#FFD7D9" stroke="#FFD7D9" stroke-width="3" stroke-miterlimit="10" cx="293.4" cy="114.2" r="105.4"/>
	<g>
		<text transform="matrix(-1 0 0 1 336.9762 174.6758)" fill="#4D4D4F" font-family="'odstemplikBold'" font-size="218.1457">B</text>
		
			<text transform="matrix(0.9999 1.449993e-02 -1.449993e-02 0.9999 249.8411 173.4069)" fill="#4D4D4F" font-family="'odstemplikBold'" font-size="218.1468">B</text>
	</g>
	<g>
		<g>
			<path fill="#77787B" stroke="#77787B" stroke-miterlimit="10" d="M281.3,114.1L281.3,114.1c-2,0-3.6,1.6-3.6,3.6v51.6
				c0,2,1.6,3.6,3.6,3.6h24.3c2,0,3.6-1.6,3.6-3.6v-51.6c0-2-1.6-3.6-3.6-3.6L281.3,114.1L281.3,114.1z"/>
			<ellipse fill="#BCBEC0" stroke="#77787B" stroke-miterlimit="10" cx="293.4" cy="116.5" rx="15.7" ry="6.1"/>
			<g>
				<path fill="#ED8F9B" stroke="#ED8F9B" stroke-miterlimit="10" d="M304.5,62.5v51.2c0,0-4.9,12.7-22.2,2.7V74.3
					C282.3,74.3,299.9,78.2,304.5,62.5z"/>
				
					<ellipse transform="matrix(-0.7071 0.7071 -0.7071 -0.7071 545.1019 -100.8025)" fill="#FDAAB5" stroke="#FDAAB5" stroke-miterlimit="10" cx="293.4" cy="62.5" rx="14.6" ry="7.7"/>
			</g>
		</g>
		<path fill="#58595B" stroke="#77787B" stroke-miterlimit="10" d="M282.3,172.8c0,0-4.6,0-4.6-2.9v-51.9c0,0,2.8,4.6,9.3,4.6v50.1
			H282.3z"/>
	</g>
</g>
<g>
	<g enable-background="new    ">
		<path d="M205.6,330.2c29,0,46.1,17.2,46.1,43.6c0,4.3-0.7,8.6-1.4,13.2c-2.5,13.2-7.5,24.3-13.9,32.9
			c18.6-4.3,25.7-22.9,34.7-40.4l0.7-1.4l5.4,2.9l-0.7,1.4c-8.9,17.9-19,42.6-45.8,44c-11.8,11.4-27.2,16.8-44.3,16.8
			c-34,0-55.8-21.1-55.8-41.5c0-1.4,0-2.9,0.4-4.3c20.7-106.6,18.6-160.6,26.8-171.7c1.4-2.1,16.1-2.9,17.2-2.9
			c3.9,0,37.2,2.1,37.5,26.5v0.7c0,22.9-24,61.9-42.9,91.9C180.5,334.9,193.4,330.2,205.6,330.2z M159.4,407.5
			c0,18.2,12.2,27.9,26.8,27.9c7.9,0,14.3-4.3,19.7-11.4c-4.3-1.1-4.6-3.6-4.6-4.6c0-2.5,2.1-4.6,4.6-4.6c0.7,0,1.1,0,1.8,0.4
			c0.7,0.4,1.8,1.1,2.9,1.4c4.3-8.2,7.9-18.6,10-30c1.4-7.5,2.1-15,2.1-21.1c0-16.8-5.4-27.2-17.2-27.2c-13.2,0-26.5,3.9-37.9,12.2
			c-1.8,15-3.9,30.8-7.2,47.9C159.8,401.4,159.4,404.6,159.4,407.5z M206.6,249.4c0-15.7-26.1-20.4-31.5-20.7l-0.4,0.4
			c-5,6.4-0.7,45.1-5.4,101.6C188,300.9,206.6,268.3,206.6,249.4z"/>
		<path d="M268.1,384.9c8.9-34.7,33.6-54.7,67.6-54.7c21.1,0,35,8.6,35,26.1c0,16.1-13.2,40.8-54.4,40.8c-7.2,0-13.6-1.1-19.3-3.2
			c-1.1,5.4-1.8,10-1.8,14.7c0,13.2,4.6,26.8,23.6,26.8c20,0,45.4-15,59-40.4l8.2-15.4l0.7-1.4l5.4,2.9l-0.7,1.4l-7.9,15.4
			c-16.4,31.8-42.9,45.4-66.5,45.4c-31.8,0-50.8-17.5-50.8-44C266.4,394.6,266.7,389.9,268.1,384.9z M315,391
			c19.3,0,29.7-26.5,29.7-37.5c0-11.8-3.9-15.4-8.9-15.4c-13.6,0-26.1,9.7-37.2,50.1C303.2,389.9,308.9,391,315,391z"/>
		<path d="M416.2,435c1.1,0,2.5,0,3.6-0.4c13.6-3.6,24.7-12.5,36.5-35.4l10.7-21.1l5.4,2.9l-10.7,20.4
			c-13.6,26.8-29.7,41.8-49.3,41.8c-24.3,0-31.5-17.9-31.5-36.1c0-3.6,0-7.2,0.7-10.7c20.4-106.2,17.9-159.5,26.5-170.6
			c1.4-2.1,16.1-2.9,17.2-2.9c3.9,0,37.2,2.1,37.5,26.5v0.7c0,21.8-23.6,59-42.9,88.3c-1.8,17.9-4.6,37.2-8.6,59
			c-1.4,7.2-2.9,16.5-2.9,24S409.7,435,416.2,435z M456.9,249.4c0-15.7-26.1-20.4-31.5-20.7l-0.4,0.4c-2.1,2.9-2.5,12.5-2.5,21.5
			v23.2c0,14.3-0.4,31.5-1.8,51.5C439.4,296.6,456.9,267.3,456.9,249.4z"/>
		<path d="M496.3,435c1.1,0,2.5,0,3.6-0.4c13.6-3.6,24.7-12.5,36.5-35.4l10.7-21.1l5.4,2.9l-10.7,20.4
			c-13.6,26.8-29.7,41.8-49.3,41.8c-24.3,0-31.5-17.9-31.5-36.1c0-3.6,0-7.2,0.7-10.7c20.4-106.2,17.9-159.5,26.5-170.6
			c1.4-2.1,16.1-2.9,17.2-2.9c3.9,0,37.2,2.1,37.5,26.5v0.7c0,21.8-23.6,59-42.9,88.3c-1.8,17.9-4.6,37.2-8.6,59
			c-1.4,7.2-2.9,16.5-2.9,24S489.8,435,496.3,435z M537.1,249.4c0-15.7-26.1-20.4-31.5-20.7l-0.4,0.4c-2.1,2.9-2.5,12.5-2.5,21.5
			v23.2c0,14.3-0.4,31.5-1.8,51.5C519.5,296.6,537.1,267.3,537.1,249.4z"/>
		<path d="M543.5,384.9c8.9-34.7,33.6-54.7,67.6-54.7c21.1,0,35,8.6,35,26.1c0,16.1-13.2,40.8-54.4,40.8c-7.2,0-13.6-1.1-19.3-3.2
			c-1.1,5.4-1.8,10-1.8,14.7c0,13.2,4.6,26.8,23.6,26.8c20,0,45.4-15,59-40.4l8.2-15.4l0.7-1.4l5.4,2.9l-0.7,1.4l-7.9,15.4
			c-16.5,31.8-42.9,45.4-66.5,45.4c-31.8,0-50.8-17.5-50.8-44C541.7,394.6,542.1,389.9,543.5,384.9z M590.3,391
			c19.3,0,29.7-26.5,29.7-37.5c0-11.8-3.9-15.4-8.9-15.4c-13.6,0-26.1,9.7-37.2,50.1C578.5,389.9,584.3,391,590.3,391z"/>
	</g>
	<g enable-background="new    ">
		<path d="M152.8,506.3H148v-56.8h4.7V472c1.5-2.5,3.6-4.4,6.3-5.7c2.6-1.3,5.4-1.9,8.3-1.9c3.1,0,5.8,0.6,8.1,1.8
			c2.3,1.2,4.2,2.8,5.7,4.7c1.5,2,2.6,4.3,3.3,6.9c0.7,2.6,1.1,5.4,1.1,8.2c0,3-0.3,5.8-1,8.4c-0.7,2.6-1.8,4.9-3.3,6.8
			c-1.5,1.9-3.4,3.4-5.7,4.5c-2.3,1.1-5.1,1.7-8.4,1.7c-1.3,0-2.7-0.2-4-0.6c-1.4-0.4-2.7-0.9-4-1.6c-1.3-0.7-2.5-1.5-3.5-2.6
			c-1.1-1-2-2.2-2.6-3.6h-0.2V506.3z M152.8,485.8c0,2.5,0.3,4.8,0.9,6.9c0.6,2.1,1.5,4,2.6,5.5c1.2,1.6,2.6,2.8,4.3,3.7
			c1.7,0.9,3.7,1.3,5.9,1.3c2,0,3.8-0.4,5.5-1.1c1.7-0.7,3.1-1.7,4.4-3.1c1.3-1.4,2.2-3,3-5s1.1-4.2,1.1-6.8c0.1-2.6-0.1-5-0.6-7.2
			c-0.5-2.2-1.4-4.2-2.5-5.9c-1.2-1.7-2.6-3-4.4-4c-1.8-1-3.9-1.5-6.3-1.5c-2.2,0-4.1,0.5-5.8,1.4c-1.7,0.9-3.1,2.2-4.3,3.7
			c-1.2,1.6-2.1,3.4-2.7,5.4C153.1,481.2,152.8,483.4,152.8,485.8z"/>
		<path d="M245.4,487c0,2.2,0.3,4.3,0.9,6.3c0.6,2,1.4,3.7,2.6,5.1c1.1,1.4,2.6,2.6,4.3,3.5s3.7,1.3,6,1.3c3.1,0,5.7-0.8,8-2.4
			s3.7-3.9,4.4-6.9h5.3c-0.6,1.9-1.3,3.7-2.3,5.4c-0.9,1.7-2.1,3.1-3.5,4.3c-1.4,1.2-3.1,2.2-5,2.9c-1.9,0.7-4.2,1-6.8,1
			c-3.3,0-6.1-0.6-8.4-1.7c-2.4-1.1-4.3-2.6-5.8-4.5c-1.5-1.9-2.7-4.2-3.4-6.8c-0.7-2.6-1.1-5.4-1.1-8.4s0.4-5.8,1.3-8.4
			c0.9-2.6,2.1-4.9,3.7-6.9c1.6-2,3.6-3.5,5.9-4.7c2.3-1.1,4.9-1.7,7.9-1.7c5.6,0,10,1.9,13.2,5.8c3.2,3.9,4.8,9.5,4.7,16.8H245.4z
			 M272,483.1c0-2-0.3-3.9-0.8-5.6c-0.6-1.8-1.4-3.3-2.4-4.6c-1.1-1.3-2.4-2.3-4.1-3.1c-1.6-0.8-3.5-1.1-5.6-1.1
			c-2.1,0-3.9,0.4-5.5,1.2c-1.6,0.8-3,1.8-4.1,3.2c-1.1,1.3-2,2.8-2.7,4.6c-0.7,1.7-1.1,3.6-1.3,5.5H272z"/>
		<path d="M351.9,482.5c0.9-0.1,2-0.3,3.2-0.5c1.2-0.2,2.2-0.5,3-0.9c0.8-0.4,1.3-1,1.5-1.9c0.2-0.9,0.3-1.7,0.3-2.4
			c0-2.4-0.8-4.4-2.3-6c-1.5-1.5-4.2-2.3-7.8-2.3c-1.6,0-3.1,0.1-4.5,0.4c-1.4,0.3-2.6,0.8-3.6,1.5c-1,0.7-1.9,1.7-2.5,2.8
			c-0.7,1.2-1.1,2.7-1.3,4.5H333c0.2-2.4,0.7-4.5,1.7-6.2c0.9-1.7,2.2-3.1,3.7-4.2c1.5-1.1,3.2-1.9,5.2-2.4c2-0.5,4.1-0.7,6.3-0.7
			c2,0,4,0.2,5.8,0.7c1.8,0.4,3.4,1.2,4.7,2.1c1.3,1,2.4,2.3,3.1,3.9c0.8,1.6,1.1,3.6,1.1,6v22.2c0,1.8,0.3,3,1,3.5
			c0.7,0.5,2,0.4,4-0.4v3.7c-0.4,0.1-0.9,0.3-1.6,0.5c-0.7,0.2-1.4,0.3-2.1,0.3c-0.7,0-1.4-0.1-2.1-0.2c-0.8-0.1-1.4-0.4-1.9-0.7
			c-0.5-0.4-0.9-0.9-1.1-1.4c-0.3-0.6-0.5-1.2-0.6-1.8c-0.1-0.7-0.2-1.4-0.2-2.1c-2,2.2-4.3,3.9-6.8,5c-2.6,1.2-5.4,1.7-8.3,1.7
			c-1.8,0-3.5-0.2-5.2-0.7c-1.7-0.5-3.1-1.2-4.4-2.2c-1.3-1-2.3-2.2-3-3.7c-0.7-1.4-1.1-3.2-1.1-5.2c0-6.9,4.7-11,14.2-12.3
			L351.9,482.5z M359.9,484.9c-2,0.8-4,1.4-6.1,1.7c-2,0.3-4.1,0.5-6.1,0.6c-3.6,0.3-6.4,1.1-8.5,2.4c-2,1.4-3,3.4-3,6.2
			c0,1.3,0.2,2.4,0.7,3.3c0.5,0.9,1.2,1.7,2,2.3c0.8,0.6,1.8,1.1,2.8,1.3c1.1,0.3,2.2,0.4,3.3,0.4c1.9,0,3.7-0.2,5.5-0.7
			c1.8-0.5,3.4-1.2,4.8-2.2c1.4-1,2.5-2.2,3.3-3.7c0.8-1.5,1.3-3.3,1.3-5.3V484.9z"/>
		<path d="M451.5,465.5h4.7v40.8h-4.7v-5.7c-0.6,0.7-1.3,1.5-2.1,2.3c-0.8,0.8-1.7,1.5-2.7,2.2c-1,0.7-2.2,1.2-3.6,1.7
			c-1.4,0.4-2.9,0.7-4.7,0.7c-2.7,0-5-0.4-6.8-1.1c-1.8-0.8-3.3-1.8-4.4-3.2c-1.1-1.4-1.9-3-2.4-4.8c-0.5-1.8-0.7-3.8-0.7-6v-26.9
			h4.7v26.8c0,3.5,0.8,6.2,2.4,8.1c1.6,1.9,4.3,2.8,8,2.8c1.9,0,3.7-0.4,5.2-1.1c1.5-0.8,2.8-1.8,3.9-3.2c1-1.4,1.9-3,2.4-4.9
			c0.6-1.9,0.9-4,0.9-6.2V465.5z"/>
		<path d="M528.9,506.5c-0.6,0.1-1.3,0.3-2.3,0.6c-0.9,0.3-2,0.4-3.1,0.4c-2.4,0-4.2-0.6-5.4-1.8c-1.2-1.2-1.9-3.3-1.9-6.3v-29.9
			h-5.7v-3.9h5.7v-11.4h4.7v11.4h7.6v3.9h-7.6v28c0,1,0,1.9,0.1,2.6c0.1,0.7,0.2,1.3,0.5,1.8c0.3,0.5,0.7,0.8,1.2,1
			c0.6,0.2,1.3,0.3,2.3,0.3c0.6,0,1.3-0.1,1.9-0.2c0.7-0.1,1.3-0.2,1.9-0.4V506.5z"/>
		<path d="M583,517.4c0.6,0.1,1.3,0.2,1.9,0.3c0.7,0.1,1.3,0.2,2,0.2c1.3,0,2.4-0.4,3.2-1.3c0.8-0.8,1.5-1.9,2.1-3
			c0.6-1.2,1-2.4,1.4-3.7c0.4-1.3,0.8-2.4,1.3-3.3l-15.8-41.1h5.3l13.1,35.1l13.1-35.1h5.1l-15.2,40.3c-0.9,2.6-1.8,4.9-2.7,6.9
			c-0.9,2-1.8,3.8-2.8,5.2c-1,1.4-2,2.5-3.2,3.3c-1.2,0.8-2.6,1.1-4.2,1.1c-0.8,0-1.6-0.1-2.4-0.2c-0.8-0.1-1.5-0.2-2.1-0.4V517.4z"
			/>
	</g>
</g>
</svg>
