<?xml version="1.0" encoding="utf-8"?>
<!-- Generator: Adobe Illustrator 17.1.0, SVG Export Plug-In . SVG Version: 6.00 Build 0)  -->
<!DOCTYPE svg PUBLIC "-//W3C//DTD SVG 1.1//EN" "http://www.w3.org/Graphics/SVG/1.1/DTD/svg11.dtd">
<svg version="1.1" id="Layer_1" xmlns="http://www.w3.org/2000/svg" xmlns:xlink="http://www.w3.org/1999/xlink" x="0px" y="0px"
	 viewBox="0 0 206.877 234.612" enable-background="new 0 0 206.877 234.612" xml:space="preserve">
<g>
	<circle fill="#FFD7D9" stroke="#FFD7D9" stroke-width="3" stroke-miterlimit="10" cx="64.111" cy="43.767" r="40.407"/>
	<g>
		<text transform="matrix(-1 0 0 1 80.8116 66.9622)" fill="#4D4D4F" font-family="'odstemplikBold'" font-size="83.6268">B</text>
		
			<text transform="matrix(0.9999 0.0145 -0.0145 0.9999 47.4081 66.4757)" fill="#4D4D4F" font-family="'odstemplikBold'" font-size="83.6268">B</text>
	</g>
	<g>
		<g>
			<path fill="#77787B" stroke="#77787B" stroke-miterlimit="10" d="M59.47,43.737h-0.014c-0.754,0-1.365,0.611-1.365,1.365v19.783
				c0,0.754,0.611,1.365,1.365,1.365h9.32c0.754,0,1.365-0.611,1.365-1.365V45.101c0-0.754-0.611-1.365-1.365-1.365H59.47z"/>
			<ellipse fill="#BCBEC0" stroke="#77787B" stroke-miterlimit="10" cx="64.117" cy="44.659" rx="6.025" ry="2.333"/>
			<g>
				<path fill="#ED8F9B" stroke="#ED8F9B" stroke-miterlimit="10" d="M68.379,23.957v19.634c0,0-1.89,4.871-8.524,1.025V28.465
					C59.855,28.465,66.616,29.96,68.379,23.957z"/>
				
					<ellipse transform="matrix(-0.7071 -0.7071 0.7071 -0.7071 92.5143 86.234)" fill="#FDAAB5" stroke="#FDAAB5" stroke-miterlimit="10" cx="64.117" cy="23.957" rx="2.948" ry="5.599"/>
			</g>
		</g>
		<path fill="#58595B" stroke="#77787B" stroke-miterlimit="10" d="M59.843,66.249c0,0-1.763,0.013-1.763-1.098V45.263
			c0,0,1.076,1.767,3.55,1.767v19.219H59.843z"/>
	</g>
</g>
<g>
	<text transform="matrix(1 0 0 1 1.220703e-04 168.8106)" font-family="'odstemplikBold'" font-size="137.087">belle</text>
	
		<text transform="matrix(0.9987 0 0 1 6.0002 194.1011)" font-family="'Helvetica-Light'" font-size="30.2156" letter-spacing="18.024">beauty</text>
</g>
</svg>
