<?xml version="1.0" encoding="utf-8"?>
<!-- Generator: Adobe Illustrator 17.1.0, SVG Export Plug-In . SVG Version: 6.00 Build 0)  -->
<!DOCTYPE svg PUBLIC "-//W3C//DTD SVG 1.1//EN" "http://www.w3.org/Graphics/SVG/1.1/DTD/svg11.dtd">
<svg version="1.1" id="Layer_1" xmlns="http://www.w3.org/2000/svg" xmlns:xlink="http://www.w3.org/1999/xlink" x="0px" y="0px"
	 viewBox="106.7 8.9 629 603.1" enable-background="new 106.7 8.9 629 603.1" xml:space="preserve">
<g>
	<circle fill="#FFD7D9" stroke="#FFD7D9" stroke-width="3" stroke-miterlimit="10" cx="297.5" cy="133.9" r="123.5"/>
	<g>
		<g enable-background="new    ">
			<path fill="#4D4D4F" d="M284.4,54l2.3,3.6c-3.8,2.8-6.1,5.9-7.7,9.2c19.2,12.8,30.4,34.8,30.4,54.2c0,10.5-3.6,20.7-10.7,27.9
				l-2.6-2.6c6.9-6.9,9.2-16.1,9.2-25.3c0-17.6-10-37.3-27.6-49.1c-0.3,1.8-0.5,3.6-0.5,5.6c0,5.4,1,11.5,2.3,18.4l12.8,63.9
				c0.5,2.6,1,5.1,1.8,7.4c1.8-0.3,3.6-0.5,5.4-0.5c29.6,0,40.4,18.4,40.4,28.9c0,7.7-6.1,11.2-14.3,11.2c-11,0-33.7-7.4-46.5-26.3
				c-14.1,10-29.1,26.3-49.1,26.3c-14.6,0-28.9-4.1-38.8-12c-19.2-1-26.3-18.7-32.7-31.4l-0.5-1l3.8-2l0.5,1
				c6.9,13.3,11,25.6,23.8,28.6c-5.4-6.1-8.7-14.1-8.7-23.5c0-16.1,11.8-32.2,28.6-41.4c-10.7-8.2-17.4-19.9-17.4-31.7
				c0-20.7,19.2-37.8,53.2-37.8c12,0,23,3.1,32.2,8.2C277,60.4,280.3,57,284.4,54z M203.6,187.9c1.3-0.5,1.8-1,3.1-1
				c1.8,0,3.3,1.5,3.3,3.3c0,1-0.5,2.3-2.3,3.1c5.4,5.4,13,7.9,22.2,7.9c16.6,0,29.9-16.1,45.7-26.3c-2.3-4.3-3.8-9.2-4.9-14.6
				l-11.5-59c-0.3-1-0.3-2.3-0.3-3.6c0-7.2,2.8-18.7,11.5-29.9c-8.4-4.1-18.1-6.6-28.9-6.6c-24,0-33.2,16.9-33.2,31.9
				c0,9.7,3.3,19.7,9.2,26.8c6.4-2,13-3.1,19.9-3.1c13.5,0,22,4.6,22,9.2c0,7.2-10.5,10.2-20.4,10.2c-9.5,0-18.1-2.3-25.6-6.1
				c-14.1,11.5-14.8,32.5-14.8,38.6C198.8,176.6,200.6,182.8,203.6,187.9z M222.5,125c4.6,3.6,10.2,5.6,16.6,5.6
				c8.4,0,16.4-0.8,16.4-4.6c0-2-8.4-3.6-17.9-3.6C231.7,122.5,226.6,123.5,222.5,125z M296.1,172.6c7.7,19.9,21.5,28.6,31.2,28.6
				c7.4,0,8.4-3.3,8.4-5.6c0-8.9-9.7-23.3-37.1-23.3C297.9,172.3,296.9,172.6,296.1,172.6z"/>
		</g>
		<g enable-background="new    ">
			<path fill="#4D4D4F" d="M323.1,63.3c9.3-5,20.3-7.9,32.3-7.7c34,0.5,52.9,17.9,52.6,38.6c-0.2,11.8-7,23.4-17.8,31.4
				c16.7,9.4,28.3,25.7,28,41.8c-0.1,9.5-3.6,17.3-9,23.4c12.8-2.9,17.1-15.1,24.2-28.3l0.5-1l3.8,2.1l-0.5,1
				c-6.6,12.7-14,30.2-33.2,31c-10.1,7.8-24.5,11.7-39,11.4c-19.9-0.3-34.8-16.9-48.7-27c-13.1,18.7-35.9,25.8-46.9,25.6
				c-8.2-0.1-14.3-3.8-14.1-11.5c0.2-10.5,11.2-28.7,40.8-28.3c1.8,0,3.6,0.3,5.4,0.6c0.8-2.3,1.3-4.8,1.9-7.4L317,95.4
				c1.4-6.9,2.5-13,2.6-18.4c0-2-0.2-3.8-0.4-5.6c-17.8,11.5-28.1,31-28.3,48.7c-0.1,9.2,2,18.4,8.8,25.4l-2.6,2.5
				c-7.1-7.3-10.5-17.5-10.3-28c0.3-19.4,11.8-41.2,31.2-53.7c-1.5-3.3-3.7-6.4-7.5-9.3l2.4-3.5C316.8,56.6,320.1,59.9,323.1,63.3z
				 M296.7,171.5c-27.3-0.4-37.3,13.8-37.4,22.7c0,2.3,0.9,5.6,8.4,5.7c9.7,0.1,23.6-8.3,31.6-28.2
				C298.5,171.8,297.5,171.5,296.7,171.5z M396.7,169.4c0.1-6.1-0.4-27.1-14.3-38.8c-7.5,3.7-16.2,5.9-25.6,5.8
				c-10-0.1-20.4-3.4-20.3-10.5c0.1-4.6,8.6-9.1,22.1-8.9c6.9,0.1,13.5,1.2,19.9,3.4c6-7.1,9.4-17,9.6-26.7
				c0.2-15.1-8.7-32.1-32.8-32.4c-10.7-0.2-20.5,2.3-29,6.2c8.5,11.4,11.2,22.9,11.1,30.1c0,1.3,0,2.6-0.3,3.6l-12.4,58.9
				c-1.1,5.4-2.7,10.2-5.1,14.5c15.7,10.5,28.8,26.7,45.4,27c9.2,0.1,16.9-2.3,22.3-7.6c-1.8-0.8-2.3-2.1-2.3-3.1
				c0-1.8,1.6-3.3,3.4-3.3c1.3,0,1.8,0.5,3.1,1.1C394.7,183.4,396.6,177.3,396.7,169.4z M358.5,122.6c-9.5-0.1-17.9,1.3-17.9,3.3
				c-0.1,3.8,7.9,4.7,16.3,4.8c6.4,0.1,12-1.9,16.7-5.4C369.5,123.8,364.4,122.7,358.5,122.6z"/>
		</g>
	</g>
	<g>
		<g>
			<path fill="#77787B" stroke="#77787B" stroke-miterlimit="10" d="M283.3,133.8L283.3,133.8c-2.3,0-4.2,1.9-4.2,4.2v60.5
				c0,2.3,1.9,4.2,4.2,4.2h28.5c2.3,0,4.2-1.9,4.2-4.2V138c0-2.3-1.9-4.2-4.2-4.2H283.3L283.3,133.8z"/>
			<ellipse fill="#BCBEC0" stroke="#77787B" stroke-miterlimit="10" cx="297.5" cy="136.6" rx="18.4" ry="7.1"/>
			<g>
				<path fill="#ED8F9B" stroke="#ED8F9B" stroke-miterlimit="10" d="M310.5,73.3v60c0,0-5.7,14.9-26,3.2V87.2
					C284.5,87.2,305.1,91.7,310.5,73.3z"/>
				
					<ellipse transform="matrix(0.7071 0.7071 -0.7071 0.7071 138.9716 -188.9108)" fill="#FDAAB5" stroke="#FDAAB5" stroke-miterlimit="10" cx="297.5" cy="73.3" rx="9" ry="17.1"/>
			</g>
		</g>
		<path fill="#58595B" stroke="#77787B" stroke-miterlimit="10" d="M284.5,202.6c0,0-5.4,0-5.4-3.4v-60.8c0,0,3.3,5.4,10.9,5.4v58.7
			h-5.5V202.6z"/>
	</g>
</g>
<g>
	<g enable-background="new    ">
		<path d="M194.6,387c34,0,54,20.2,54,51.1c0,5-0.8,10.1-1.6,15.5C244,469,238.2,482,230.7,492c21.8-5,30.1-26.8,40.7-47.3l0.8-1.6
			l6.3,3.4l-0.8,1.6c-10.4,21-22.3,49.9-53.7,51.5c-13.8,13.4-31.9,19.7-51.9,19.7c-39.8,0-65.4-24.7-65.4-48.6c0-1.6,0-3.4,0.5-5
			c24.3-124.9,21.8-188.1,31.4-201.1c1.6-2.5,18.9-3.4,20.2-3.4c4.6,0,43.6,2.5,43.9,31v0.8c0,26.8-28.1,72.5-50.3,107.7
			C165.2,392.5,180.3,387,194.6,387z M140.5,477.5c0,21.3,14.3,32.7,31.4,32.7c9.3,0,16.8-5,23.1-13.4c-5-1.3-5.4-4.2-5.4-5.4
			c0-2.9,2.5-5.4,5.4-5.4c0.8,0,1.3,0,2.1,0.5c0.8,0.5,2.1,1.3,3.4,1.6c5-9.6,9.3-21.8,11.7-35.1c1.6-8.8,2.5-17.6,2.5-24.7
			c0-19.7-6.3-31.9-20.2-31.9c-15.5,0-31,4.6-44.4,14.3c-2.1,17.6-4.6,36.1-8.4,56.1C141,470.4,140.5,474.1,140.5,477.5z
			 M195.8,292.3c0-18.4-30.6-23.9-36.9-24.3l-0.5,0.5c-5.9,7.5-0.8,52.8-6.3,119C174,352.6,195.8,314.4,195.8,292.3z"/>
		<path d="M267.8,451c10.4-40.7,39.4-64.1,79.2-64.1c24.7,0,41,10.1,41,30.6c0,18.9-15.5,47.8-63.7,47.8c-8.4,0-15.9-1.3-22.6-3.7
			c-1.3,6.3-2.1,11.7-2.1,17.2c0,15.5,5.4,31.4,27.6,31.4c23.4,0,53.2-17.6,69.1-47.3l9.6-18l0.8-1.6l6.3,3.4l-0.8,1.6l-9.3,18
			c-19.2,37.3-50.3,53.2-77.9,53.2c-37.3,0-59.5-20.5-59.5-51.5C265.8,462.4,266.2,456.9,267.8,451z M322.8,458.2
			c22.6,0,34.8-31,34.8-43.9c0-13.8-4.6-18-10.4-18c-15.9,0-30.6,11.4-43.6,58.7C308.9,456.9,315.6,458.2,322.8,458.2z"/>
		<path d="M441.3,509.7c1.3,0,2.9,0,4.2-0.5c15.9-4.2,28.9-14.6,42.8-41.5l12.5-24.7l6.3,3.4l-12.5,23.9c-15.9,31.4-34.8,49-57.8,49
			c-28.5,0-36.9-21-36.9-42.3c0-4.2,0-8.4,0.8-12.5c23.9-124.4,21-186.9,31-199.9c1.6-2.5,18.9-3.4,20.2-3.4c4.6,0,43.6,2.5,43.9,31
			v0.8c0,25.5-27.6,69.1-50.3,103.4c-2.1,21-5.4,43.6-10.1,69.1c-1.6,8.4-3.4,19.3-3.4,28.1S433.7,509.7,441.3,509.7z M489,292.3
			c0-18.4-30.6-23.9-36.9-24.3l-0.5,0.5c-2.5,3.4-2.9,14.6-2.9,25.2v27.2c0,16.8-0.5,36.9-2.1,60.3C468.5,347.6,489,313.3,489,292.3
			z"/>
		<path d="M535.2,509.7c1.3,0,2.9,0,4.2-0.5c15.9-4.2,28.9-14.6,42.8-41.5l12.5-24.7l6.3,3.4l-12.5,23.9c-15.9,31.4-34.8,49-57.8,49
			c-28.5,0-36.9-21-36.9-42.3c0-4.2,0-8.4,0.8-12.5c23.9-124.4,21-186.9,31-199.9c1.6-2.5,18.9-3.4,20.2-3.4c4.6,0,43.6,2.5,43.9,31
			v0.8c0,25.5-27.6,69.1-50.3,103.4c-2.1,21-5.4,43.6-10.1,69.1c-1.6,8.4-3.4,19.3-3.4,28.1S527.6,509.7,535.2,509.7z M583,292.3
			c0-18.4-30.6-23.9-36.9-24.3l-0.5,0.5c-2.5,3.4-2.9,14.6-2.9,25.2v27.2c0,16.8-0.5,36.9-2.1,60.3C562.3,347.6,583,313.3,583,292.3
			z"/>
		<path d="M590.5,451c10.4-40.7,39.4-64.1,79.2-64.1c24.7,0,41,10.1,41,30.6c0,18.9-15.5,47.8-63.7,47.8c-8.4,0-15.9-1.3-22.6-3.7
			c-1.3,6.3-2.1,11.7-2.1,17.2c0,15.5,5.4,31.4,27.6,31.4c23.4,0,53.2-17.6,69.1-47.3l9.6-18l0.8-1.6l6.3,3.4l-0.8,1.6l-9.3,18
			c-19.3,37.3-50.3,53.2-77.9,53.2c-37.3,0-59.5-20.5-59.5-51.5C588.4,462.4,588.8,456.9,590.5,451z M645.3,458.2
			c22.6,0,34.8-31,34.8-43.9c0-13.8-4.6-18-10.4-18c-15.9,0-30.6,11.4-43.6,58.7C631.5,456.9,638.3,458.2,645.3,458.2z"/>
	</g>
	<g enable-background="new    ">
		<path d="M132.8,593.3h-5.6v-66.5h5.5v26.4c1.8-2.9,4.2-5.2,7.4-6.7c3-1.5,6.3-2.2,9.7-2.2c3.6,0,6.8,0.7,9.5,2.1s4.9,3.3,6.7,5.5
			c1.8,2.3,3,5,3.9,8.1c0.8,3,1.3,6.3,1.3,9.6c0,3.5-0.4,6.8-1.2,9.8c-0.8,3-2.1,5.7-3.9,8s-4,4-6.7,5.3c-2.7,1.3-6,2-9.8,2
			c-1.5,0-3.2-0.2-4.7-0.7c-1.6-0.5-3.2-1.1-4.7-1.9c-1.5-0.8-2.9-1.8-4.1-3c-1.3-1.2-2.3-2.6-3-4.2h-0.2L132.8,593.3L132.8,593.3z
			 M132.8,569.2c0,2.9,0.4,5.6,1.1,8.1c0.7,2.5,1.8,4.7,3,6.4c1.4,1.9,3,3.3,5,4.3s4.3,1.5,6.9,1.5c2.3,0,4.5-0.5,6.4-1.3
			c2-0.8,3.6-2,5.2-3.6c1.5-1.6,2.6-3.5,3.5-5.9c0.9-2.3,1.3-4.9,1.3-8c0.1-3-0.1-5.9-0.7-8.4c-0.6-2.6-1.6-4.9-2.9-6.9
			c-1.4-2-3-3.5-5.2-4.7c-2.1-1.2-4.6-1.8-7.4-1.8c-2.6,0-4.8,0.6-6.8,1.6c-2,1.1-3.6,2.6-5,4.3c-1.4,1.9-2.5,4-3.2,6.3
			C133.1,563.9,132.8,566.4,132.8,569.2z"/>
		<path d="M241.2,570.6c0,2.6,0.4,5,1.1,7.4c0.7,2.3,1.6,4.3,3,6c1.3,1.6,3,3,5,4.1c2,1.1,4.3,1.5,7,1.5c3.6,0,6.7-0.9,9.4-2.8
			c2.7-1.9,4.3-4.6,5.2-8.1h6.2c-0.7,2.2-1.5,4.3-2.7,6.3c-1.1,2-2.5,3.6-4.1,5c-1.6,1.4-3.6,2.6-5.9,3.4c-2.2,0.8-4.9,1.2-8,1.2
			c-3.9,0-7.1-0.7-9.8-2c-2.8-1.3-5-3-6.8-5.3c-1.8-2.2-3.2-4.9-4-8c-0.8-3-1.3-6.3-1.3-9.8c0-3.5,0.5-6.8,1.5-9.8s2.5-5.7,4.3-8.1
			c1.9-2.3,4.2-4.1,6.9-5.5c2.7-1.3,5.7-2,9.3-2c6.6,0,11.7,2.2,15.5,6.8s5.6,11.1,5.5,19.7L241.2,570.6L241.2,570.6z M272.4,566.1
			c0-2.3-0.4-4.6-0.9-6.6c-0.7-2.1-1.6-3.9-2.8-5.4c-1.3-1.5-2.8-2.7-4.8-3.6c-1.9-0.9-4.1-1.3-6.6-1.3c-2.5,0-4.6,0.5-6.4,1.4
			c-1.9,0.9-3.5,2.1-4.8,3.7c-1.3,1.5-2.3,3.3-3.2,5.4c-0.8,2-1.3,4.2-1.5,6.4h31V566.1z"/>
		<path d="M366,565.4c1.1-0.1,2.3-0.4,3.7-0.6c1.4-0.2,2.6-0.6,3.5-1.1c0.9-0.5,1.5-1.2,1.8-2.2c0.2-1.1,0.4-2,0.4-2.8
			c0-2.8-0.9-5.2-2.7-7c-1.8-1.8-4.9-2.7-9.1-2.7c-1.9,0-3.6,0.1-5.3,0.5c-1.6,0.4-3,0.9-4.2,1.8c-1.2,0.8-2.2,2-2.9,3.3
			c-0.8,1.4-1.3,3.2-1.5,5.3h-5.7c0.2-2.8,0.8-5.3,2-7.3c1.1-2,2.6-3.6,4.3-4.9c1.8-1.3,3.7-2.2,6.1-2.8c2.3-0.6,4.8-0.8,7.4-0.8
			c2.3,0,4.7,0.2,6.8,0.8c2.1,0.5,4,1.4,5.5,2.5c1.5,1.2,2.8,2.7,3.6,4.6c0.9,1.9,1.3,4.2,1.3,7v26c0,2.1,0.4,3.5,1.2,4.1
			s2.3,0.5,4.7-0.5v4.3c-0.5,0.1-1.1,0.4-1.9,0.6c-0.8,0.2-1.6,0.4-2.5,0.4s-1.6-0.1-2.5-0.2c-0.9-0.1-1.6-0.5-2.2-0.8
			c-0.6-0.5-1.1-1.1-1.3-1.6c-0.4-0.7-0.6-1.4-0.7-2.1c-0.1-0.8-0.2-1.6-0.2-2.5c-2.3,2.6-5,4.6-8,5.9c-3,1.4-6.3,2-9.7,2
			c-2.1,0-4.1-0.2-6.1-0.8c-2-0.6-3.6-1.4-5.2-2.6s-2.7-2.6-3.5-4.3c-0.8-1.6-1.3-3.7-1.3-6.1c0-8.1,5.5-12.9,16.6-14.4L366,565.4z
			 M375.4,568.2c-2.3,0.9-4.7,1.6-7.1,2c-2.3,0.4-4.8,0.6-7.1,0.7c-4.2,0.4-7.5,1.3-10,2.8c-2.3,1.6-3.5,4-3.5,7.3
			c0,1.5,0.2,2.8,0.8,3.9c0.6,1.1,1.4,2,2.3,2.7c0.9,0.7,2.1,1.3,3.3,1.5c1.3,0.4,2.6,0.5,3.9,0.5c2.2,0,4.3-0.2,6.4-0.8
			c2.1-0.6,4-1.4,5.6-2.6c1.6-1.2,2.9-2.6,3.9-4.3s1.5-3.9,1.5-6.2L375.4,568.2L375.4,568.2z"/>
		<path d="M482.7,545.5h5.5v47.8h-5.5v-6.7c-0.7,0.8-1.5,1.8-2.5,2.7c-0.9,0.9-2,1.8-3.2,2.6s-2.6,1.4-4.2,2
			c-1.6,0.5-3.4,0.8-5.5,0.8c-3.2,0-5.9-0.5-8-1.3c-2.1-0.9-3.9-2.1-5.2-3.7c-1.3-1.6-2.2-3.5-2.8-5.6c-0.6-2.1-0.8-4.5-0.8-7v-31.5
			h5.5v31.4c0,4.1,0.9,7.3,2.8,9.5c1.9,2.2,5,3.3,9.4,3.3c2.2,0,4.3-0.5,6.1-1.3c1.8-0.9,3.3-2.1,4.6-3.7c1.2-1.6,2.2-3.5,2.8-5.7
			c0.7-2.2,1.1-4.7,1.1-7.3v-26.1H482.7z"/>
		<path d="M573.4,593.5c-0.7,0.1-1.5,0.4-2.7,0.7c-1.1,0.4-2.3,0.5-3.6,0.5c-2.8,0-4.9-0.7-6.3-2.1s-2.2-3.9-2.2-7.4v-35h-6.7v-4.6
			h6.7v-13.4h5.5v13.4h8.9v4.6H564v32.8c0,1.2,0,2.2,0.1,3c0.1,0.8,0.2,1.5,0.6,2.1s0.8,0.9,1.4,1.2c0.7,0.2,1.5,0.4,2.7,0.4
			c0.7,0,1.5-0.1,2.2-0.2c0.8-0.1,1.5-0.2,2.2-0.5v4.6H573.4z"/>
		<path d="M636.7,606.3c0.7,0.1,1.5,0.2,2.2,0.4c0.8,0.1,1.5,0.2,2.3,0.2c1.5,0,2.8-0.5,3.7-1.5c0.9-0.9,1.8-2.2,2.5-3.5
			c0.7-1.4,1.2-2.8,1.6-4.3s0.9-2.8,1.5-3.9l-18.5-48.1h6.2l15.3,41.1l15.3-41.1h6l-17.8,47.2c-1.1,3-2.1,5.7-3.2,8.1
			s-2.1,4.5-3.3,6.1c-1.2,1.6-2.3,2.9-3.7,3.9s-3,1.3-4.9,1.3c-0.9,0-1.9-0.1-2.8-0.2c-0.9-0.1-1.8-0.2-2.5-0.5v-5H636.7z"/>
	</g>
</g>
</svg>
