<?xml version="1.0" encoding="utf-8"?>
<!-- Generator: Adobe Illustrator 17.1.0, SVG Export Plug-In . SVG Version: 6.00 Build 0)  -->
<!DOCTYPE svg PUBLIC "-//W3C//DTD SVG 1.1//EN" "http://www.w3.org/Graphics/SVG/1.1/DTD/svg11.dtd">
<svg version="1.1" id="Layer_1" xmlns="http://www.w3.org/2000/svg" xmlns:xlink="http://www.w3.org/1999/xlink" x="0px" y="0px"
	 viewBox="0 0 77.496 77.496" enable-background="new 0 0 77.496 77.496" xml:space="preserve">
<g>
	<circle fill="#ED8F9B" stroke="#ED8F9B" stroke-miterlimit="10" cx="38.748" cy="38.748" r="38.248"/>
	<path fill="#FFD7D9" stroke="#FFD7D9" stroke-miterlimit="10" d="M66.081,52.581c0,1.985-2.239,3.594-5,3.594H16.415
		c-2.761,0-5-1.609-5-3.594l0,0c0-1.985,2.239-3.594,5-3.594h44.667C63.843,48.988,66.081,50.597,66.081,52.581L66.081,52.581z"/>
	<path fill="#FFD7D9" stroke="#FFD7D9" stroke-miterlimit="10" d="M66.081,40.081c0,1.985-2.239,3.594-5,3.594H16.415
		c-2.761,0-5-1.609-5-3.594l0,0c0-1.985,2.239-3.594,5-3.594h44.667C63.843,36.488,66.081,38.097,66.081,40.081L66.081,40.081z"/>
	<path fill="#FFD7D9" stroke="#FFD7D9" stroke-miterlimit="10" d="M66.081,26.342c0,1.985-2.239,3.594-5,3.594H16.415
		c-2.761,0-5-1.609-5-3.594l0,0c0-1.985,2.239-3.594,5-3.594h44.667C63.843,22.748,66.081,24.357,66.081,26.342L66.081,26.342z"/>
</g>
</svg>
